/vscmnt/brussel_pixiu_data/_data_brussel/112/vsc11236/PredSimResults/SUBJ04mtu3D/worker7.mot
version=1
nRows=10
nColumns=50
inDegrees=yes
endheader
                time	         pelvis_tilt	         pelvis_list	     pelvis_rotation	           pelvis_tx	           pelvis_ty	           pelvis_tz	       hip_flexion_r	     hip_adduction_r	      hip_rotation_r	        knee_angle_r	       ankle_angle_r	         mtp_angle_r	       hip_flexion_l	     hip_adduction_l	      hip_rotation_l	        knee_angle_l	       ankle_angle_l	         mtp_angle_l	    lumbar_extension	      lumbar_bending	     lumbar_rotation	 ercspn_r/activation	 intobl_r/activation	 extobl_r/activation	    abd_r/activation	    add_r/activation	hamstrings_r/activation	bifemsh_r/activation	glut_max_r/activation	iliopsoas_r/activation	rect_fem_r/activation	  vasti_r/activation	gastroc_r/activation	 soleus_r/activation	tib_ant_r/activation	 ercspn_l/activation	 intobl_l/activation	 extobl_l/activation	    abd_l/activation	    add_l/activation	hamstrings_l/activation	bifemsh_l/activation	glut_max_l/activation	iliopsoas_l/activation	rect_fem_l/activation	  vasti_l/activation	gastroc_l/activation	 soleus_l/activation	tib_ant_l/activation	
          0.00000000	         -2.96558550	          3.65210921	          4.21937884	          0.00000000	          0.87634665	         -0.00158017	         31.08131093	         -4.78646851	        -10.33330476	         -8.68569361	          6.99070971	          0.22931778	        -12.58590097	          2.58467584	        -17.37241371	         -9.04766691	          9.22950352	         26.67330365	        -14.53675974	        -10.23155409	         -4.36787460	          0.01000054	          0.08425695	          0.05025346	          0.01000001	          0.24992215	          0.09074509	          0.17627636	          0.03276407	          0.10561020	          0.01626585	          0.01000006	          0.03524996	          0.01865960	          0.18263326	          0.01000007	          0.01000012	          0.01000013	          0.04610689	          0.01000127	          0.03191848	          0.10566371	          0.02765888	          0.01000020	          0.01000023	          0.01183357	          0.32846397	          0.25252927	          0.01126521	
          0.01411360	         -3.00667935	          3.43216903	          4.18699263	          0.01699355	          0.87455297	         -0.00158518	         30.78758014	         -4.65852359	        -10.77650846	        -10.12963706	          6.61638175	          0.22136188	        -13.29776879	          2.17356277	        -17.82443929	         -9.73092547	          8.70622839	         28.10046991	        -14.05432468	         -9.17400903	         -4.28403616	          0.01000019	          0.06821193	          0.04068361	          0.02834125	          0.20232906	          0.08597111	          0.14270820	          0.09172297	          0.08549865	          0.01316836	          0.01000003	          0.02853730	          0.01510625	          0.21690851	          0.01000080	          0.01000003	          0.01000040	          0.03732667	          0.01000127	          0.02584206	          0.08554207	          0.02239176	          0.01000133	          0.01000024	          0.01000021	          0.30789844	          0.24056330	          0.01000003	
          0.02822721	         -3.03263736	          3.13457641	          4.11418907	          0.03438152	          0.87310902	         -0.00151539	         30.35625044	         -4.48269350	        -11.24580183	        -11.28606864	          6.03481981	          0.20980934	        -13.85853287	          1.62205757	        -18.30800809	        -10.76031199	          8.06628011	         29.57129750	        -13.53376770	         -7.99987436	         -4.17964632	          0.01000452	          0.05522225	          0.03293617	          0.05717684	          0.16626628	          0.07300753	          0.11553214	          0.11400791	          0.06921698	          0.01066080	          0.02911414	          0.02310295	          0.01222968	          0.23986828	          0.01000033	          0.01000002	          0.01000006	          0.03021848	          0.01000060	          0.02092292	          0.06925221	          0.01812768	          0.01000324	          0.01006008	          0.01000194	          0.28158903	          0.22568812	          0.01000006	
          0.04234081	         -3.04611949	          2.79561148	          3.99450296	          0.05186874	          0.87222289	         -0.00132770	         29.91411847	         -4.27240625	        -11.79487342	        -12.43462923	          5.46733280	          0.19229685	        -14.17482886	          0.94396672	        -18.82626129	        -12.25984437	          7.24477085	         31.08920975	        -13.01716773	         -6.75868223	         -4.05913227	          0.01230109	          0.04470619	          0.02666409	          0.08400479	          0.16675249	          0.06924154	          0.09353129	          0.09827505	          0.05603587	          0.01000029	          0.08283531	          0.01870349	          0.01000019	          0.26783971	          0.02647286	          0.01000003	          0.01000006	          0.02446392	          0.01000080	          0.01893232	          0.05606445	          0.01467564	          0.01000151	          0.01000058	          0.03034527	          0.24593316	          0.20720823	          0.01000005	
          0.05645441	         -3.05000522	          2.42198013	          3.83518474	          0.06937149	          0.87199621	         -0.00101905	         29.41113979	         -4.01317537	        -12.36500534	        -13.51263998	          5.06035652	          0.17198412	        -14.26846034	          0.15019124	        -19.35224566	        -14.15297805	          6.18326219	         32.57554943	        -12.51386935	         -5.46583136	         -3.92730238	          0.01143614	          0.03619272	          0.02158646	          0.11397718	          0.17703778	          0.06963174	          0.07572013	          0.07986761	          0.04536486	          0.01000027	          0.11356023	          0.01514199	          0.01000100	          0.27580308	          0.04680933	          0.01000007	          0.01000006	          0.01980521	          0.01000123	          0.03447840	          0.04538806	          0.01402114	          0.01000050	          0.01000028	          0.03994325	          0.19909969	          0.18449112	          0.01000004	
          0.07056802	         -3.04648856	          2.02322971	          3.64664211	          0.08681334	          0.87244958	         -0.00059195	         28.81352186	         -3.69167423	        -12.87583341	        -14.45749816	          4.84561715	          0.15657639	        -14.16045572	         -0.74576167	        -19.86820295	        -16.38630541	          4.91215306	         33.84872546	        -12.03020631	         -4.14018855	         -3.79205226	          0.01231388	          0.02930048	          0.01747588	          0.13708252	          0.15717735	          0.06888219	          0.06130079	          0.07238226	          0.03672595	          0.01000023	          0.14505504	          0.01225931	          0.01000680	          0.27460741	          0.08350804	          0.01000023	          0.01000006	          0.01603367	          0.01000188	          0.04695399	          0.03674479	          0.03250873	          0.01000041	          0.01000024	          0.03233683	          0.16118475	          0.15052098	          0.01000003	
          0.08468162	         -3.03691208	          1.61675979	          3.43926956	          0.10407322	          0.87355986	         -0.00004515	         28.10752694	         -3.30717270	        -13.26213528	        -15.21457402	          4.77510709	          0.14636301	        -13.82799706	         -1.73358509	        -20.39237796	        -18.99048183	          3.51261956	         34.67646685	        -11.57712245	         -2.81187838	         -3.65939342	          0.01920643	          0.02372075	          0.01414846	          0.15499171	          0.15525026	          0.07132984	          0.04962734	          0.05859960	          0.02973217	          0.01000020	          0.16574251	          0.01000201	          0.01000179	          0.26590811	          0.09233062	          0.03872093	          0.01000005	          0.01298036	          0.01000210	          0.05601777	          0.02974751	          0.02763501	          0.01000038	          0.01000016	          0.02617888	          0.13049002	          0.12185699	          0.01000003	
          0.09879522	         -3.02221258	          1.23465572	          3.22560823	          0.12102593	          0.87523371	          0.00061550	         27.29303614	         -2.89147664	        -13.52059309	        -15.76368367	          4.80901630	          0.14100448	        -13.23423568	         -2.79697181	        -20.93205633	        -22.02252399	          2.11328553	         34.75973055	        -11.16889656	         -1.52798202	         -3.52593893	          0.01746501	          0.01920358	          0.01146025	          0.16250722	          0.14392174	          0.07306237	          0.04017688	          0.04744100	          0.02407022	          0.01000018	          0.17053346	          0.01000271	          0.01000756	          0.25379311	          0.09871608	          0.03134767	          0.01000006	          0.01050849	          0.04401701	          0.07042235	          0.02408281	          0.03806300	          0.01000037	          0.01000012	          0.02119359	          0.10564055	          0.09865153	          0.01000005	
          0.11290883	         -3.00195146	          0.90825988	          3.00882389	          0.13761907	          0.87734946	          0.00135835	         26.39390616	         -2.49202415	        -13.69153911	        -16.14246268	          4.92199996	          0.14091667	        -12.38028334	         -3.91722632	        -21.52444692	        -25.49704114	          0.81406256	         33.88763808	        -10.81004779	         -0.32610696	         -3.38686298	          0.01640340	          0.01554664	          0.01000161	          0.16357867	          0.14311957	          0.07983371	          0.03252607	          0.03959839	          0.01948650	          0.01000015	          0.17071118	          0.01000046	          0.01000027	          0.23920334	          0.08103854	          0.02537813	          0.01000008	          0.01000003	          0.11769302	          0.06575709	          0.01949716	          0.03235428	          0.01000045	          0.01000011	          0.01715766	          0.08552321	          0.07986512	          0.01000003	
          0.12702243	         -2.97565002	          0.66721408	          2.78689677	          0.15382054	          0.87978509	          0.00215162	         25.43586259	         -2.15581276	        -13.81677384	        -16.39453525	          5.10541943	          0.14595506	        -11.27355476	         -5.07191811	        -22.13825921	        -29.34960672	         -0.55587535	         32.27062173	        -10.50404626	          0.76075808	         -3.23092672	          0.01328047	          0.01258616	          0.01000057	          0.15994491	          0.13364117	          0.08843401	          0.02633221	          0.04766505	          0.01577566	          0.01000015	          0.17002593	          0.01000122	          0.01000206	          0.22093023	          0.07761127	          0.02054535	          0.01000010	          0.01000007	          0.17256930	          0.07456569	          0.03895966	          0.02619458	          0.01000064	          0.01000008	          0.01389029	          0.06923686	          0.06465625	          0.01000084	
